<?xml version="1.0" encoding="UTF-8" standalone="no"?>
<!-- Created with Inkscape (http://www.inkscape.org/) -->

<svg
   width="30.546mm"
   height="9.11mm"
   viewBox="0 0 53.092903 10.223602"
   version="1.1"
   id="svg5"
   inkscape:export-filename="Logo.svg"
   inkscape:export-xdpi="96"
   inkscape:export-ydpi="96"
   xmlns:inkscape="http://www.inkscape.org/namespaces/inkscape"
   xmlns:sodipodi="http://sodipodi.sourceforge.net/DTD/sodipodi-0.dtd"
   xmlns="http://www.w3.org/2000/svg"
   xmlns:svg="http://www.w3.org/2000/svg">
  <sodipodi:namedview
     id="namedview7"
     pagecolor="#ffffff"
     bordercolor="#000000"
     borderopacity="0.25"
     inkscape:showpageshadow="2"
     inkscape:pageopacity="0.0"
     inkscape:pagecheckerboard="0"
     inkscape:deskcolor="#d1d1d1"
     inkscape:document-units="mm"
     showgrid="false"
     inkscape:zoom="2.1115193"
     inkscape:cx="400.42259"
     inkscape:cy="566.65361"
     inkscape:window-width="1920"
     inkscape:window-height="1017"
     inkscape:window-x="-8"
     inkscape:window-y="-8"
     inkscape:window-maximized="1"
     inkscape:current-layer="layer1" />
  <defs
     id="defs2" />
  <g
     inkscape:label="Layer 1"
     inkscape:groupmode="layer"
     id="layer1"
     transform="translate(-79.572336,-140.53958)">
    <g
       aria-label="{Musab}"
       id="text113"
       style="font-size:11.6177px;fill:#1a1a1a;stroke-width:0.968136">
      <path
         d="m 82.964711,147.96329 v -1.33603 c 0,-0.46471 -0.116177,-0.6506 -0.522796,-0.7203 l -0.383385,-0.0697 c -0.116177,-0.0232 -0.15103,-0.0581 -0.15103,-0.16265 0,-0.10456 0.03485,-0.15103 0.15103,-0.16264 l 0.383385,-0.0697 c 0.406619,-0.0697 0.522796,-0.25559 0.522796,-0.7203 v -1.35927 c 0,-0.40662 0.104559,-0.58088 0.476326,-0.58088 h 0.243971 c 0.290443,0 0.418238,-0.1278 0.418238,-0.41824 v -1.40574 c 0,-0.29044 -0.127795,-0.41824 -0.418238,-0.41824 H 83.17383 c -2.195746,0 -2.857955,0.96427 -2.857955,2.38163 v 1.54515 c -0.499561,0.15103 -0.743532,0.44148 -0.743532,0.99913 v 0.40661 c 0,0.55765 0.243971,0.85971 0.743532,1.01074 v 1.51031 c 0,1.40574 0.662209,2.37001 2.857955,2.37001 h 0.511178 c 0.290443,0 0.418238,-0.1278 0.418238,-0.41824 v -1.38251 c 0,-0.29044 -0.127795,-0.41823 -0.418238,-0.41823 h -0.243971 c -0.371767,0 -0.476326,-0.17427 -0.476326,-0.58089 z"
         style="fill:#9900BB"
         id="path1574" />
      <path
         d="m 87.576937,149.83374 c 0.290442,0 0.418237,-0.12779 0.418237,-0.41824 v -4.08943 l 0.685444,1.26633 c 0.139412,0.26721 0.313678,0.37177 0.615738,0.37177 h 0.464708 c 0.30206,0 0.476326,-0.10456 0.615738,-0.37177 l 0.685445,-1.26633 v 4.08943 c 0,0.29045 0.116177,0.41824 0.418237,0.41824 h 1.789125 c 0.290443,0 0.418238,-0.12779 0.418238,-0.41824 v -7.52827 c 0,-0.29044 -0.127795,-0.41823 -0.418238,-0.41823 h -1.882067 c -0.243972,0 -0.395002,0.0929 -0.534414,0.34853 l -1.033975,1.89368 c -0.08132,0.13941 -0.116177,0.1975 -0.209119,0.1975 h -0.104559 c -0.09294,0 -0.127795,-0.0581 -0.209119,-0.1975 l -1.045593,-1.89368 C 88.111351,141.56194 87.960321,141.469 87.716349,141.469 h -1.87045 c -0.290442,0 -0.418237,0.12779 -0.418237,0.41823 v 7.52827 c 0,0.29045 0.127795,0.41824 0.418237,0.41824 z"
         style="fill:#ffffff"
         id="path1576" />
      <path
         d="m 102.41275,147.638 v -5.75077 c 0,-0.29044 -0.12779,-0.41823 -0.41824,-0.41823 h -1.76589 c -0.302058,0 -0.418235,0.12779 -0.418235,0.41823 v 5.29767 c 0,0.31368 -0.139412,0.54604 -0.964269,0.54604 -0.813239,0 -0.952651,-0.23236 -0.952651,-0.54604 v -5.29767 c 0,-0.29044 -0.127795,-0.41823 -0.418237,-0.41823 h -1.823979 c -0.290442,0 -0.418237,0.12779 -0.418237,0.41823 v 5.75077 c 0,1.41735 0.70868,2.37001 3.589869,2.37001 2.881189,0 3.589869,-0.95266 3.589869,-2.37001 z"
         style="fill:#ffffff"
         id="path1578" />
      <path
         d="m 107.83822,149.83374 c 1.49868,0 2.40486,-0.7203 2.40486,-2.04471 v -1.21986 c 0,-1.30119 -0.72029,-1.76589 -1.81236,-1.92854 l -1.73104,-0.23236 c -0.1975,-0.0232 -0.31367,-0.16264 -0.31367,-0.37176 0,-0.20912 0.11617,-0.34853 0.31367,-0.34853 h 2.70693 c 0.29044,0 0.41824,-0.1278 0.41824,-0.41824 v -1.38251 c 0,-0.29044 -0.1278,-0.41823 -0.41824,-0.41823 h -3.25296 c -1.5103,0 -2.40486,0.72029 -2.40486,2.04471 v 1.21986 c 0,1.30118 0.70868,1.76589 1.80074,1.92854 l 1.74266,0.24397 c 0.1975,0.0232 0.30206,0.12779 0.30206,0.395 0,0.18588 -0.10456,0.33692 -0.30206,0.33692 h -3.12516 c -0.29045,0 -0.41824,0.12779 -0.41824,0.41823 v 1.35927 c 0,0.29045 0.12779,0.41824 0.41824,0.41824 z"
         style="fill:#ffffff"
         id="path1580" />
      <path
         d="m 114.54163,143.90871 c 0.0581,-0.13941 0.12779,-0.1975 0.22073,-0.1975 h 0.29045 c 0.0929,0 0.16264,0.0581 0.22073,0.1975 l 0.54603,1.76589 h -1.82397 z m -0.66221,5.50679 v -1.62647 h 2.05633 v 1.62647 c 0,0.29045 0.13941,0.41824 0.45309,0.41824 h 1.75427 c 0.29045,0 0.41824,-0.12779 0.41824,-0.41824 v -3.06707 c 0,-0.46471 -0.13941,-1.04559 -0.45309,-1.85883 l -1.01074,-2.63722 c -0.0929,-0.26721 -0.27882,-0.38338 -0.58088,-0.38338 h -3.12516 c -0.31368,0 -0.49957,0.11617 -0.59251,0.38338 l -1.01074,2.63722 c -0.31368,0.81324 -0.45309,1.39412 -0.45309,1.85883 v 3.06707 c 0,0.29045 0.1278,0.41824 0.41824,0.41824 h 1.7078 c 0.29044,0 0.41824,-0.12779 0.41824,-0.41824 z"
         style="fill:#ffffff"
         id="path1582" />
      <path
         d="m 124.86976,149.83374 c 1.54515,0 2.25383,-0.60412 2.25383,-1.9053 v -1.06883 c 0,-1.13854 -0.46471,-1.7078 -1.46383,-1.80074 0.46471,-0.19751 0.68544,-0.60412 0.68544,-1.25472 v -0.55765 c 0,-1.21985 -0.70868,-1.7775 -2.23059,-1.7775 h -3.70605 c -0.29044,0 -0.41824,0.12779 -0.41824,0.41823 v 7.52827 c 0,0.29045 0.1278,0.41824 0.41824,0.41824 z m -2.26545,-6.38973 h 0.9875 c 0.30206,0 0.44147,0.15103 0.44147,0.4647 v 0.3253 c 0,0.31368 -0.13941,0.46471 -0.44147,0.46471 h -0.9875 z m 0,3.04383 h 1.5103 c 0.30206,0 0.44147,0.13942 0.44147,0.45309 v 0.45309 c 0,0.31368 -0.13941,0.46471 -0.44147,0.46471 h -1.5103 z"
         style="fill:#ffffff"
         id="path1584" />
      <path
         d="m 129.27287,147.96329 c 0,0.40662 -0.10456,0.58089 -0.47633,0.58089 h -0.24397 c -0.29044,0 -0.41824,0.12779 -0.41824,0.41823 v 1.38251 c 0,0.29044 0.1278,0.41824 0.41824,0.41824 h 0.51118 c 2.19575,0 2.85795,-0.96427 2.85795,-2.37001 v -1.51031 c 0.49957,-0.15103 0.74354,-0.45309 0.74354,-1.01074 v -0.40661 c 0,-0.55765 -0.24397,-0.8481 -0.74354,-0.99913 v -1.54515 c 0,-1.41736 -0.6622,-2.38163 -2.85795,-2.38163 h -0.51118 c -0.29044,0 -0.41824,0.1278 -0.41824,0.41824 v 1.40574 c 0,0.29044 0.1278,0.41824 0.41824,0.41824 h 0.24397 c 0.37177,0 0.47633,0.17426 0.47633,0.58088 v 1.35927 c 0,0.46471 0.11618,0.65059 0.5228,0.7203 l 0.38338,0.0697 c 0.11618,0.0116 0.15103,0.0581 0.15103,0.16264 0,0.10456 -0.0349,0.13942 -0.15103,0.16265 l -0.38338,0.0697 c -0.40662,0.0697 -0.5228,0.25559 -0.5228,0.7203 z"
         style="fill:#9900BB"
         id="path1586" />
    </g>
  </g>
</svg>
